<?xml version="1.0" encoding="UTF-8"?>
<svg xmlns="http://www.w3.org/2000/svg" xmlns:xlink="http://www.w3.org/1999/xlink" version="1.1" id="Layer_1" x="0px" y="0px" viewBox="0 0 595.3 841.9" style="background: transparent;" xml:space="preserve">
<style type="text/css">
	.st0{fill:#FCFAFA;}
</style>
<g>
	<g>
		<path class="st0" d="M25.6,336.3c0.3-0.2,0.3-0.5,0.3-0.8c1.1-3.3,4.1-5.5,7.5-5.7c0.4,0,0.8,0,1.3,0c10.1,0,20.2,0,30.3,0    c0.3,0,0.7,0,0.9,0c0.3-0.4,0.2-0.7,0.2-1.1c0-10.3,0-20.5,0-30.8c0-2,0.5-3.9,1.8-5.5c1.7-2,3.8-3.2,6.5-3.2    c10,0,20.1,0.1,30.1,0c3.9,0,8.3,3.2,8.3,8.3c0,5.6,0,11.3,0,17c0,2.9,0,5.9,0,8.8c0,0.5,0,1.1-0.2,1.6c-0.5,1.2-1.8,2-3.1,1.8    c-1.3-0.1-2.4-1.1-2.7-2.4c-0.2-0.7-0.2-1.4-0.2-2.1c0-8,0-16.1,0-24.1c0-0.5,0-1-0.1-1.5c-0.3-0.8-0.8-1.2-1.6-1.3    c-0.2,0-0.5,0-0.7,0c-9.7,0-19.4,0-29.1,0c-0.4,0-0.8,0-1.2,0.1c-0.9,0.3-1.5,1-1.6,2c0,0.3,0,0.5,0,0.8c0,10.9,0,21.8,0,32.8    c0,0.7,0,1.5-0.2,2.2c-0.3,1.7-1.2,2.5-3,2.6c-1.3,0-2.7,0-4,0c-10.3,0-20.5,0-30.8,0c-0.7,0-1.3,0-1.9,0.6    c-0.5,0.5-0.7,1.2-0.7,1.9c0,8,0,15.9,0,23.9c0,1.8,0,3.6,0,5.4c0,1.5,0.8,2.5,2.5,2.6c0.7,0,1.3,0,2,0c10.7,0,21.4,0,32.1,0    c0.4,0,0.8,0,1.2,0c1.4,0,2.5,0.9,2.8,2.3c0.2,0.7,0.2,1.4,0.2,2c0,9.5,0,19,0,28.6c0,0.3,0,0.6,0,0.9c0.1,0,0.1,0,0.1,0    c0.6-0.9,1.3-1.7,1.9-2.6c6.6-9.1,14.7-16.5,23.8-23c5.5-4,11.4-7.4,17.4-10.6c2.3-1.2,4.6-2.5,6.9-3.8c0.2,0,0.3-0.1,0.3-0.3    c-0.3,0-0.6-0.1-0.8,0.1c-3.3,0.3-6.6,0.6-10,0.6c-8.1,0-16.1-1-23.7-4c-7.1-2.7-13.4-6.5-18.8-11.8c-0.6-0.6-1.2-1.1-1.8-1.7    c-0.4-0.4-0.8-0.8-1-1.3c-0.6-1.1-0.5-2.4,0.3-3.4c0.8-1,2-1.3,3.2-0.9c0.6,0.2,1.1,0.5,1.5,0.9c3.1,3.3,6.6,6.1,10.4,8.5    c5.8,3.6,12.2,5.7,18.9,6.8c5.4,0.9,10.8,1,16.3,0.7c5.4-0.4,10.8-1.2,16.2-2.3c5.4-1.1,10.6-2.5,15.9-4.1    c1.7-0.5,3.2,0.1,3.9,1.5c0.8,1.6,0.2,3.4-1.6,4.1c-1.3,0.6-2.6,1.1-3.9,1.7c-8.8,3.8-17.6,7.8-26.1,12.3    c-7,3.7-13.9,7.7-20.3,12.3c-5.2,3.7-10.1,7.8-14.5,12.4c-5,5.3-9.5,11-12.8,17.5c-0.5,0.9-0.9,1.8-1.4,2.7    c-0.2,0.4-0.4,0.7-0.6,1.1c-0.8,1.1-2,1.5-3.1,1.2c-1.3-0.3-2.2-1.4-2.3-2.7c0-0.4,0-0.7,0-1.1c0-12.5,0-25,0-37.6    c0-0.3,0.1-0.6-0.1-1c-0.3-0.2-0.6-0.1-1-0.1c-10.2,0-20.4,0-30.6,0c-4.2,0-7.2-2.1-8.6-6.1c0-0.1,0-0.3-0.2-0.3    C25.6,358.8,25.6,347.6,25.6,336.3z"/>
		<path class="st0" d="M479.3,354.7c-0.4-0.1-0.8-0.1-1.1-0.1c-15,0-30,0-45,0c-0.3,0-0.6,0-0.9,0c-1.4-0.1-2.3-1-2.4-2.4    c0-0.4,0-0.7,0-1.1c0.1-1.3,1-2.3,2.4-2.3c0.2,0,0.5,0,0.7,0c16.4,0,32.8,0,49.2,0c0.4,0,0.7,0,1.1,0c1,0.1,1.9,1,2,2    c0,0.3,0,0.6,0,1c0,8.6,0,17.3,0,26c0,0.3,0,0.7,0,1c-0.1,1-1,1.9-2.1,2c-0.3,0-0.5,0-0.8,0c-11.5,0-23,0-34.6,0    c-4.9,0-9.7-0.9-14-3.3c-8-4.4-13.2-11-14.8-20.2c-1.2-6.8-0.5-13.5,2.9-19.6c4.5-8.2,11.4-13.2,20.7-14.8    c1.7-0.3,3.4-0.4,5.1-0.4c11.6,0,23.2,0,34.8,0c0.8,0,1.5,0.1,2.1,0.6c1,1,1.1,3.4,0.2,4.4c-0.4,0.5-0.9,0.7-1.6,0.8    c-0.3,0-0.6,0-0.9,0c-11.3,0-22.7,0-34,0c-2.9,0-5.8,0.3-8.5,1.3c-8.3,3.2-13.4,9.2-14.8,18c-0.8,5.1-0.3,10.1,2.1,14.6    c4.1,7.8,10.6,12,19.4,12.5c0.5,0,1,0,1.5,0c10.2,0,20.4,0,30.5,0c0.3,0,0.5,0,0.9,0C479.3,368.1,479.3,361.4,479.3,354.7z"/>
		<path class="st0" d="M251.4,358.3c0,0.5,0,0.8,0,1.1c0,6.1,0,12.1,0,18.2c0,0.4,0,0.8-0.1,1.1c-0.2,1.1-1.1,1.9-2.2,2    c-0.5,0-1.1,0-1.6,0c-1.2-0.1-2-0.9-2.2-2.1c0-0.3,0-0.6,0-0.9c0-17.4,0-34.8,0-52.2c0-0.3,0-0.5,0-0.8c0.1-1.2,1-2.1,2.2-2.2    c0.2,0,0.5,0,0.7,0c15.2,0,30.5,0,45.7,0c3.3,0,6.5,0.6,9.3,2.3c5.3,3.2,8.3,7.8,8.8,14c0.3,3.7-0.3,7.3-2.2,10.6    c-2.4,4.1-5.9,6.9-10.5,8.2c-0.2,0.1-0.4,0-0.6,0.3c1.1,1.6,2.2,3.3,3.3,4.9c3.1,4.6,6.2,9.2,9.4,13.8c0.5,0.7,0.9,1.5,0.6,2.4    c-0.2,0.6-0.6,1.1-1.1,1.4c-1.4,0.8-3.6,0.3-4.5-1c-4-5.8-7.9-11.6-11.9-17.4c-0.8-1.1-1.5-2.2-2.3-3.3c-0.2-0.3-0.5-0.5-0.9-0.5    c-0.6,0-1.3,0-1.9,0c-12.3,0-24.6,0-37,0C252.2,358.3,251.8,358.3,251.4,358.3z M251.4,352.3c0.3,0.2,0.5,0.1,0.7,0.1    c14,0,28,0,42.1,0c0.8,0,1.7-0.1,2.5-0.2c9.2-2,12-12.4,7.3-18.9c-2.5-3.5-6-5-10.2-5c-13.9,0-27.7,0-41.6,0    c-0.2,0-0.5-0.1-0.7,0.1C251.4,336.4,251.4,344.4,251.4,352.3z"/>
		<path class="st0" d="M501.8,352.5c0,7.5,0,14.9,0,22.3c0.3,0.2,0.7,0.1,1,0.1c15.9,0,31.8,0,47.7,0c0.4,0,0.7,0,1.1,0    c1.2,0.1,2.1,1.1,2.1,2.3c0,0.4,0,0.8,0,1.3c0,1.2-1,2.2-2.2,2.3c-0.3,0-0.6,0-0.9,0c-17.3,0-34.6,0-51.9,0c-0.2,0-0.5,0-0.7,0    c-1.3-0.1-2.3-1-2.4-2.3c0-0.2,0-0.4,0-0.6c0-17.4,0-34.9,0-52.3c0-0.4,0-0.8,0.1-1.2c0.4-1,1-1.6,2.1-1.7c0.3,0,0.5,0,0.8,0    c17.3,0,34.7,0,52,0c0.3,0,0.6,0,0.9,0c0.5,0,0.8,0.2,1.2,0.5c1.3,0.8,1.3,4.2-0.2,5c-0.3,0.2-0.7,0.3-1.1,0.4c-0.3,0-0.7,0-1,0    c-15.9,0-31.8,0-47.7,0c-0.4,0-0.7-0.1-1.1,0.1c0,6,0,12,0,18c0.3,0.1,0.7,0.1,1,0.1c15,0,30,0,44.9,0c0.4,0,0.8,0,1.3,0.1    c1.2,0.2,2,1,2.1,2.2c0,0.5,0,1,0,1.4c-0.1,1.1-1,2-2.2,2.1c-0.3,0-0.7,0-1,0c-15,0-30,0-45,0    C502.6,352.4,502.2,352.4,501.8,352.5z"/>
		<path class="st0" d="M415.4,380.7c-1.3,0.2-2.2-0.4-3-1.5c-3.5-5.1-7.1-10.2-10.6-15.3c-0.3-0.5-0.7-0.7-1.3-0.7    c-6.7-0.3-13.4-0.2-20.1,0.6c-7.6,0.9-14.9,2.6-21.8,5.9c-5.2,2.5-9.9,5.8-13.8,10c-1.3,1.4-2.8,1.4-4.4,1c-1.5-0.4-2-2.2-1.2-3.6    c0.7-1.1,1.5-2.2,2.2-3.2c7.1-10.2,14.2-20.5,21.3-30.7c4.5-6.4,9-12.7,13.3-19.2c1.1-1.7,4-1.7,5.1,0c8,11.6,16,23.1,24,34.6    c4.2,6,8.4,12,12.5,18c0.2,0.2,0.4,0.5,0.5,0.7c0.8,1.5-0.2,3.4-1.9,3.5C416.1,380.8,415.8,380.7,415.4,380.7z M397.1,357    c-6.1-8.8-12.2-17.5-18.3-26.3c-7.6,11-15.2,21.9-22.7,32.9c0,0.1,0,0.1,0,0.2C369.2,358.7,382.8,356.4,397.1,357z"/>
		<path class="st0" d="M198.4,328.5c-0.4-0.1-0.7-0.1-1-0.1c-8.8,0-17.6,0-26.4,0c-0.7,0-1.3-0.1-1.9-0.4c-1.3-0.8-1.5-4.2,0.2-5.1    c0.3-0.2,0.6-0.3,1-0.3c0.3,0,0.6,0,1,0c20.2,0,40.3,0,60.5,0c0.3,0,0.7,0,1,0c0.8,0,1.4,0.4,1.8,1c0.7,1,0.6,3-0.1,3.9    c-0.4,0.5-0.9,0.8-1.6,0.9c-0.3,0-0.6,0-1,0c-8.7,0-17.4,0-26.2,0c-0.3,0-0.6-0.1-1,0.1c-0.2,0.3-0.1,0.7-0.1,1c0,16,0,32,0,48    c0,0.3,0,0.5,0,0.8c-0.1,1.5-1.1,2.4-2.5,2.5c-0.4,0-0.8,0-1.3,0c-1.3-0.1-2.2-1-2.3-2.3c0-0.3,0-0.6,0-1c0-16,0-32,0-48    C198.5,329.1,198.5,328.8,198.4,328.5z"/>
		<path class="st0" d="M317.9,391.5c49.1,0,98.2,0,147.3,0c0.3,0,0.7,0,1,0s0.5,0.2,0.5,0.6c0,0.3-0.2,0.5-0.6,0.6    c-0.3,0-0.6,0-0.9,0c-22.5,0-45,0-67.4,0c-75.8,0-151.5,0-227.3,0c-0.3,0-0.6,0-0.9,0c-0.3,0-0.6-0.2-0.6-0.6    c0-0.4,0.2-0.6,0.6-0.6c0.3,0,0.6,0,0.9,0c19.3,0,38.6,0,57.9,0C258.3,391.5,288.1,391.5,317.9,391.5z"/>
		<path class="st0" d="M322.4,351.6c0-8.7,0-17.4,0-26.1c0-0.5,0-1,0.2-1.4c0.4-1.1,1.3-1.6,3-1.6c1.5,0,2.4,0.5,2.8,1.6    c0.1,0.4,0.2,0.8,0.2,1.2c0,17.5,0,35,0,52.5c0,2-1,2.9-2.9,2.9c-0.3,0-0.5,0-0.8,0c-1.3-0.1-2.3-1-2.4-2.3c0-0.3,0-0.6,0-0.9    C322.4,368.9,322.4,360.3,322.4,351.6z"/>
		<path class="st0" d="M99.4,343.9c0-5.5,4.5-10.4,10.2-10.5c5.8,0,10.5,4.5,10.5,10.3c0,5.6-4.4,10.2-10.4,10.3    C103.2,354,99.4,348.5,99.4,343.9z"/>
		<path class="st0" d="M527.1,395.5c0.7-1.1,1.4-2.1,2-3.1c1.1-1.6,2.1-3.2,3.2-4.8c0.1-0.2,0.3-0.4,0.4-0.6    c0.2-0.2,0.5-0.3,0.8-0.1c0.3,0.1,0.4,0.3,0.4,0.6c0,0.1,0,0.2,0,0.4c0,2.9,0,5.8,0,8.7c0,0.3,0,0.7-0.3,0.9    c-0.5,0.4-1.1,0-1.2-0.7c0-1.2,0-2.4,0-3.7c0-1,0-2,0-2.9c-0.3,0-0.3,0.2-0.4,0.4c-1.3,2-2.7,4.1-4,6.1c-0.1,0.2-0.2,0.4-0.3,0.5    c-0.4,0.6-0.8,0.6-1.2,0c-0.1-0.2-0.3-0.4-0.4-0.6c-1.3-2-2.7-4.1-4-6.1c-0.1-0.1-0.1-0.3-0.3-0.3c-0.3,0.1-0.1,0.4-0.1,0.5    c0,1.9,0,3.8,0,5.6c0,0.2,0,0.5,0,0.7c0,0.4-0.3,0.5-0.7,0.6c-0.4,0-0.6-0.2-0.7-0.5c0-0.2,0-0.4,0-0.6c0-2.8,0-5.6,0-8.5    c0-0.1,0-0.3,0-0.5c0-0.3,0.2-0.6,0.5-0.7c0.3-0.1,0.7,0,0.9,0.3c0.3,0.4,0.5,0.8,0.8,1.2C523.9,390.6,525.4,393,527.1,395.5z"/>
		<path class="st0" d="M542.7,388.3c0,1,0,1.9,0,2.9c0.7,0,1.3,0,2,0c1.8,0,3.7,0,5.5,0c0.2,0,0.4,0,0.6,0c0.4,0,0.6,0.2,0.6,0.6    c0,0.4-0.2,0.7-0.6,0.8c-0.2,0-0.4,0-0.6,0c-2.5,0-5,0-7.5,0c0,1.2,0,2.4,0,3.5c0.3,0.1,0.5,0.1,0.8,0.1c2.4,0,4.8,0,7.2,0    c0.2,0,0.4,0,0.6,0c0.4,0,0.6,0.3,0.6,0.6c0,0.4-0.2,0.7-0.6,0.7c-0.2,0-0.4,0-0.5,0c-2.8,0-5.7,0-8.5,0c-1,0-1.1-0.1-1.1-1.1    c0-2.9,0-5.7,0-8.6c0-1,0.1-1.1,1.1-1.1c2.9,0,5.8,0,8.7,0c0.2,0,0.4,0,0.6,0.1c0.3,0.1,0.4,0.4,0.4,0.7c0,0.3-0.2,0.5-0.5,0.6    c-0.2,0-0.5,0-0.7,0c-2.4,0-4.8,0-7.2,0C543.3,388.2,543,388.1,542.7,388.3z"/>
		<path class="st0" d="M506.5,397.5c-0.9,0-1.9,0.1-2.8-0.2c-2.6-0.7-4.1-3-3.9-5.8c0.2-2.4,2.1-4.5,4.6-4.7c1.5-0.1,2.9-0.1,4.4,0    c2.4,0.3,4.4,2.4,4.6,4.8c0.2,2.7-1.4,5-3.9,5.7C508.5,397.6,507.5,397.5,506.5,397.5z M506.6,396.1c0.5,0,1.1,0,1.6,0    c2-0.1,3.6-1.6,3.7-3.7c0.1-2-1.3-3.9-3.2-4.1c-1.4-0.2-2.8-0.2-4.2,0c-2.1,0.3-3.4,2-3.3,4.3c0.1,2,1.7,3.5,3.8,3.6    C505.5,396.1,506,396.1,506.6,396.1z"/>
		<path class="st0" d="M491.5,392.6c-3.2,0-6.2,0-9.3,0c-0.3,0.2-0.1,0.5-0.2,0.7c0,1,0,2.1,0,3.1c0,0.8-0.2,1.1-0.7,1.1    c-0.5,0-0.7-0.2-0.7-1.1c0-2.6,0-5.1,0-7.7c0-0.3,0-0.6,0-1c0-0.8,0.2-1.1,0.8-1.1c0.5,0,0.7,0.3,0.7,1c0,0.8,0,1.6,0,2.4    c0,0.3,0,0.6,0,0.9c3.1,0,6.2,0,9.3,0c0.2-0.2,0.1-0.4,0.1-0.7c0-1,0-2,0-3c0-0.5,0.3-0.6,0.7-0.7s0.7,0.2,0.7,0.6    c0,0.2,0,0.4,0,0.6c0,2.8,0,5.6,0,8.4c0,0.2,0,0.5,0,0.7c-0.1,0.3-0.4,0.5-0.7,0.4c-0.3,0-0.6-0.1-0.6-0.5c0-0.3,0-0.5,0-0.8    C491.5,395.1,491.5,393.9,491.5,392.6z"/>
		<path class="st0" d="M121.7,364.2c0.2-0.2,0.5-0.2,0.8-0.1c0.1,0.3-0.1,0.3-0.3,0.3C122.2,364.1,121.9,364.3,121.7,364.2z"/>
	</g>
</g>
</svg>