<?xml version="1.0" encoding="utf-8"?>
<!-- Generator: Adobe Illustrator 24.3.0, SVG Export Plug-In . SVG Version: 6.00 Build 0)  -->
<svg version="1.1" id="Layer_1" xmlns="http://www.w3.org/2000/svg" xmlns:xlink="http://www.w3.org/1999/xlink" x="0px" y="0px"
	 viewBox="0 0 595.28 841.89" style="enable-background:new 0 0 595.28 841.89;" xml:space="preserve">
<style type="text/css">
	.st0{fill:#0D395A;}
	.st1{fill:#123B5C;}
	.st2{fill:#AE722E;}
	.st3{fill:#0D395B;}
	.st4{fill:#0F3A5B;}
	.st5{fill:#888DA2;}
</style>
<g>
	<g>
		<path class="st0" d="M25.62,346.59c0.29-0.18,0.25-0.52,0.34-0.78c1.13-3.25,4.08-5.48,7.51-5.66c0.42-0.02,0.83-0.02,1.25-0.02
			c10.09,0,20.19,0,30.28,0c0.33,0,0.65,0,0.95,0c0.27-0.37,0.16-0.74,0.16-1.08c0.01-10.26,0.02-20.52,0-30.79
			c0-2.04,0.48-3.89,1.8-5.46c1.69-2,3.76-3.17,6.49-3.16c10.03,0.04,20.07,0.09,30.1-0.02c3.87-0.04,8.31,3.23,8.27,8.27
			c-0.04,5.65-0.01,11.3-0.01,16.95c0,2.94,0,5.89,0,8.83c0,0.54-0.04,1.07-0.24,1.57c-0.48,1.19-1.79,1.97-3.08,1.83
			c-1.34-0.14-2.42-1.09-2.69-2.36c-0.15-0.7-0.17-1.41-0.17-2.13c0.01-8.03,0.01-16.06,0.01-24.09c0-0.5,0.04-1.01-0.13-1.5
			c-0.28-0.79-0.81-1.22-1.64-1.28c-0.24-0.02-0.48-0.01-0.71-0.01c-9.71,0-19.41,0-29.12,0c-0.39,0-0.78-0.03-1.15,0.07
			c-0.92,0.26-1.54,1.05-1.57,2.03c-0.01,0.27,0,0.54,0,0.8c0,10.92,0,21.83,0,32.75c0,0.74-0.02,1.48-0.15,2.22
			c-0.3,1.68-1.24,2.55-2.97,2.62c-1.34,0.05-2.68,0.04-4.02,0.04c-10.27,0-20.54-0.01-30.82-0.01c-0.7,0-1.35,0.02-1.9,0.57
			c-0.54,0.55-0.73,1.17-0.73,1.93c0.02,7.97,0.01,15.94,0.01,23.92c0,1.81,0.04,3.63-0.01,5.44c-0.05,1.47,0.84,2.46,2.45,2.57
			c0.65,0.04,1.31,0.02,1.96,0.02c10.69,0,21.38-0.01,32.07-0.01c0.39,0,0.77,0,1.16,0.02c1.43,0.05,2.47,0.92,2.79,2.31
			c0.16,0.68,0.16,1.36,0.16,2.04c0,9.52,0,19.04,0,28.56c0,0.28,0,0.56,0,0.85c0.05,0.01,0.1,0.03,0.14,0.04
			c0.62-0.86,1.25-1.71,1.87-2.57c6.56-9.07,14.68-16.51,23.75-22.99c5.53-3.95,11.38-7.37,17.36-10.56
			c2.31-1.23,4.59-2.5,6.89-3.76c0.17-0.03,0.34-0.06,0.27-0.31c-0.28-0.02-0.56-0.08-0.8,0.14c-3.32,0.32-6.64,0.58-9.98,0.57
			c-8.12-0.01-16.08-1.04-23.71-3.96c-7.05-2.7-13.39-6.55-18.83-11.83c-0.6-0.58-1.22-1.13-1.82-1.71
			c-0.41-0.39-0.76-0.84-1.04-1.33c-0.63-1.13-0.51-2.4,0.32-3.41c0.78-0.95,2-1.29,3.23-0.89c0.57,0.19,1.09,0.49,1.5,0.94
			c3.05,3.34,6.6,6.08,10.43,8.47c5.81,3.63,12.18,5.7,18.92,6.78c5.4,0.86,10.84,1.04,16.29,0.66c5.44-0.37,10.82-1.17,16.16-2.29
			c5.35-1.12,10.64-2.48,15.85-4.15c1.68-0.54,3.17,0.06,3.88,1.47c0.81,1.6,0.16,3.35-1.57,4.15c-1.29,0.6-2.61,1.14-3.92,1.71
			c-8.83,3.83-17.6,7.81-26.11,12.32c-7.02,3.72-13.87,7.72-20.34,12.34c-5.19,3.71-10.07,7.81-14.48,12.42
			c-5.03,5.26-9.46,11-12.85,17.48c-0.47,0.89-0.94,1.79-1.41,2.68c-0.2,0.37-0.39,0.74-0.63,1.07c-0.78,1.08-1.96,1.54-3.11,1.23
			c-1.28-0.34-2.22-1.43-2.35-2.73c-0.03-0.35-0.03-0.71-0.03-1.07c0-12.52,0-25.04,0-37.56c0-0.32,0.07-0.65-0.08-0.97
			c-0.31-0.17-0.64-0.09-0.96-0.09c-10.21-0.01-20.42,0-30.64,0c-4.19,0-7.2-2.12-8.6-6.06c-0.05-0.13-0.03-0.3-0.22-0.34
			C25.62,369.08,25.62,357.83,25.62,346.59z"/>
		<path class="st0" d="M479.34,364.92c-0.39-0.15-0.75-0.08-1.1-0.08c-15.01,0-30.01,0-45.02,0c-0.3,0-0.6,0.01-0.89-0.01
			c-1.37-0.07-2.31-1.03-2.37-2.4c-0.01-0.36-0.02-0.71,0-1.07c0.08-1.32,1.04-2.25,2.37-2.31c0.24-0.01,0.48-0.01,0.71-0.01
			c16.4,0,32.81,0,49.21,0c0.36,0,0.72-0.01,1.07,0.03c1.03,0.12,1.87,0.95,2,1.97c0.04,0.32,0.05,0.65,0.05,0.98
			c0,8.65,0,17.31,0,25.96c0,0.33,0,0.66-0.05,0.98c-0.15,1.05-1.04,1.9-2.09,2.01c-0.27,0.03-0.54,0.02-0.8,0.02
			c-11.52,0-23.04-0.01-34.57,0c-4.93,0-9.67-0.86-14-3.25c-8.03-4.43-13.2-11.05-14.84-20.17c-1.23-6.84-0.55-13.5,2.85-19.64
			c4.53-8.17,11.42-13.2,20.73-14.76c1.68-0.28,3.37-0.38,5.07-0.38c11.61,0,23.22,0,34.83-0.01c0.76,0,1.48,0.07,2.07,0.63
			c1.05,0.99,1.15,3.37,0.16,4.42c-0.42,0.45-0.94,0.72-1.57,0.76c-0.3,0.02-0.6,0.01-0.89,0.01c-11.34,0-22.69,0-34.03,0
			c-2.9,0-5.79,0.25-8.51,1.32c-8.26,3.24-13.37,9.16-14.83,17.98c-0.84,5.08-0.34,10.06,2.09,14.65
			c4.11,7.75,10.59,12.01,19.42,12.55c0.5,0.03,1.01,0.03,1.52,0.03c10.18,0,20.36,0,30.55,0c0.26,0,0.53,0,0.85,0
			C479.34,378.39,479.34,371.69,479.34,364.92z"/>
		<path class="st0" d="M251.38,368.51c0,0.46,0,0.79,0,1.12c0,6.07,0,12.13,0,18.2c0,0.39,0,0.78-0.07,1.15
			c-0.2,1.11-1.08,1.92-2.2,2c-0.53,0.04-1.07,0.04-1.61,0c-1.18-0.1-2.04-0.94-2.2-2.11c-0.04-0.29-0.03-0.59-0.03-0.89
			c0-17.4,0-34.8,0-52.19c0-0.27-0.01-0.54,0.02-0.8c0.13-1.19,1.04-2.07,2.23-2.17c0.24-0.02,0.48-0.01,0.71-0.01
			c15.24,0,30.48,0.01,45.73-0.01c3.3,0,6.46,0.59,9.31,2.3c5.27,3.17,8.3,7.78,8.8,13.97c0.3,3.74-0.31,7.31-2.24,10.56
			c-2.42,4.08-5.88,6.88-10.49,8.2c-0.19,0.06-0.42,0.04-0.58,0.29c1.1,1.63,2.22,3.27,3.34,4.91c3.12,4.6,6.24,9.19,9.37,13.79
			c0.5,0.74,0.85,1.49,0.57,2.42c-0.19,0.63-0.56,1.11-1.12,1.44c-1.44,0.82-3.61,0.34-4.54-1.01c-3.96-5.79-7.92-11.58-11.87-17.37
			c-0.75-1.1-1.52-2.2-2.26-3.32c-0.22-0.33-0.46-0.49-0.87-0.47c-0.62,0.03-1.25,0.01-1.88,0.01c-12.32,0-24.65,0-36.97,0
			C252.18,368.51,251.83,368.51,251.38,368.51z M251.39,362.56c0.28,0.16,0.49,0.11,0.69,0.11c14.02,0,28.04,0,42.06,0.01
			c0.84,0,1.67-0.07,2.48-0.24c9.23-1.99,11.98-12.43,7.32-18.85c-2.51-3.46-6-4.98-10.24-4.97c-13.87,0.02-27.74,0.01-41.61,0.01
			c-0.22,0-0.48-0.09-0.69,0.15C251.39,346.68,251.39,354.62,251.39,362.56z"/>
		<path class="st0" d="M501.79,362.77c0,7.45,0,14.85,0,22.27c0.34,0.21,0.7,0.11,1.04,0.11c15.9,0.01,31.8,0,47.7,0.01
			c0.36,0,0.72-0.02,1.07,0.02c1.18,0.12,2.08,1.06,2.14,2.25c0.02,0.42,0.02,0.83,0,1.25c-0.05,1.23-0.96,2.19-2.18,2.31
			c-0.3,0.03-0.6,0.02-0.89,0.02c-17.3,0-34.6,0-51.9,0c-0.24,0-0.48,0.01-0.71-0.01c-1.32-0.08-2.27-1.03-2.36-2.34
			c-0.01-0.21-0.01-0.42-0.01-0.62c0-17.43,0-34.86,0-52.29c0-0.41-0.02-0.83,0.13-1.23c0.36-0.99,1.03-1.58,2.09-1.68
			c0.27-0.03,0.54-0.02,0.8-0.02c17.33,0,34.66,0,51.99,0c0.3,0,0.6,0.01,0.89,0.02c0.46,0.02,0.85,0.22,1.23,0.47
			c1.28,0.83,1.33,4.16-0.17,4.96c-0.35,0.19-0.7,0.33-1.09,0.35c-0.33,0.02-0.65,0.01-0.98,0.01c-15.9,0-31.8,0-47.7,0
			c-0.35,0-0.71-0.08-1.08,0.1c0,5.99,0,11.99,0,18.04c0.34,0.12,0.69,0.07,1.03,0.07c14.98,0,29.95,0,44.93,0
			c0.42,0,0.84,0,1.25,0.06c1.2,0.17,1.99,1.02,2.08,2.21c0.04,0.47,0.03,0.95-0.01,1.43c-0.1,1.14-1,2.03-2.16,2.13
			c-0.33,0.03-0.65,0.01-0.98,0.01c-15.01,0-30.01,0-45.02,0C502.58,362.69,502.22,362.63,501.79,362.77z"/>
		<path class="st0" d="M415.37,390.98c-1.3,0.2-2.2-0.43-2.96-1.55c-3.51-5.13-7.07-10.22-10.59-15.34
			c-0.34-0.49-0.69-0.7-1.29-0.73c-6.7-0.27-13.39-0.2-20.06,0.56c-7.57,0.86-14.92,2.57-21.84,5.86
			c-5.22,2.48-9.87,5.75-13.75,10.03c-1.31,1.44-2.84,1.39-4.42,0.99c-1.5-0.38-2.05-2.22-1.17-3.58c0.71-1.1,1.48-2.16,2.23-3.23
			c7.11-10.23,14.21-20.45,21.33-30.68c4.45-6.39,8.96-12.74,13.32-19.19c1.13-1.67,3.99-1.69,5.14-0.02
			c7.95,11.56,15.99,23.06,24.01,34.57c4.18,6,8.35,12.01,12.53,18.01c0.17,0.24,0.35,0.48,0.49,0.74c0.8,1.52-0.16,3.35-1.87,3.54
			C416.11,391.01,415.78,390.98,415.37,390.98z M397.07,367.25c-6.15-8.83-12.21-17.52-18.33-26.3c-7.61,11-15.17,21.94-22.74,32.88
			c0.02,0.07,0.03,0.14,0.05,0.21C369.2,368.94,382.8,366.62,397.07,367.25z"/>
		<path class="st0" d="M198.42,338.7c-0.37-0.13-0.7-0.07-1.02-0.07c-8.81,0-17.63,0-26.44,0c-0.66,0-1.27-0.09-1.88-0.44
			c-1.32-0.78-1.5-4.19,0.2-5.06c0.32-0.16,0.65-0.29,1.01-0.31c0.33-0.01,0.65-0.01,0.98-0.01c20.16,0,40.31,0,60.47,0
			c0.33,0,0.66,0,0.98,0.01c0.77,0.03,1.35,0.42,1.79,1.03c0.69,0.96,0.63,2.96-0.11,3.88c-0.41,0.51-0.94,0.82-1.6,0.87
			c-0.33,0.03-0.65,0.02-0.98,0.02c-8.72,0-17.45,0-26.17,0c-0.32,0-0.65-0.07-0.98,0.07c-0.19,0.33-0.09,0.69-0.09,1.04
			c-0.01,16-0.01,32-0.01,48c0,0.27,0.01,0.54,0,0.8c-0.08,1.47-1.05,2.42-2.52,2.46c-0.42,0.01-0.83,0.02-1.25-0.01
			c-1.29-0.08-2.22-1-2.31-2.29c-0.02-0.33-0.01-0.65-0.01-0.98c0-16,0-32,0-48C198.48,339.39,198.54,339.07,198.42,338.7z"/>
		<path class="st1" d="M317.91,401.78c49.1,0,98.2,0,147.3,0c0.33,0,0.66-0.02,0.98,0.03c0.32,0.05,0.55,0.24,0.54,0.6
			c-0.01,0.34-0.23,0.55-0.56,0.59c-0.29,0.03-0.59,0.02-0.89,0.02c-22.48,0-44.96,0-67.44,0c-75.75,0-151.5,0-227.25,0
			c-0.3,0-0.6,0.01-0.89-0.02c-0.34-0.03-0.56-0.23-0.58-0.57c-0.02-0.39,0.23-0.6,0.6-0.64c0.3-0.03,0.59-0.02,0.89-0.02
			c19.29,0,38.59,0,57.88,0C258.3,401.78,288.11,401.78,317.91,401.78z"/>
		<path class="st0" d="M322.44,361.85c0-8.69,0-17.37,0-26.06c0-0.48,0-0.95,0.17-1.41c0.42-1.13,1.27-1.58,2.99-1.58
			c1.55,0,2.4,0.48,2.8,1.59c0.14,0.39,0.19,0.8,0.19,1.23c0,17.49,0,34.98-0.01,52.47c0,1.97-0.95,2.9-2.9,2.91
			c-0.27,0-0.54,0.01-0.8,0c-1.33-0.06-2.29-0.97-2.42-2.29c-0.03-0.29-0.01-0.59-0.01-0.89
			C322.44,379.16,322.44,370.5,322.44,361.85z"/>
		<path class="st2" d="M99.42,354.11c-0.04-5.53,4.46-10.42,10.2-10.47c5.76-0.05,10.51,4.47,10.47,10.33
			c-0.03,5.6-4.4,10.24-10.39,10.26C103.19,364.26,99.38,358.78,99.42,354.11z"/>
		<path class="st0" d="M527.07,405.71c0.72-1.09,1.37-2.08,2.02-3.07c1.06-1.61,2.12-3.23,3.18-4.84c0.13-0.2,0.25-0.41,0.42-0.58
			c0.23-0.23,0.53-0.25,0.83-0.15c0.29,0.1,0.41,0.32,0.42,0.62c0.01,0.12,0.01,0.24,0.01,0.36c0,2.91,0,5.83,0,8.74
			c0,0.33,0.03,0.66-0.29,0.89c-0.53,0.36-1.14,0.02-1.15-0.68c-0.03-1.22-0.01-2.44-0.01-3.66c0-0.98,0-1.96,0-2.94
			c-0.31-0.05-0.34,0.22-0.44,0.37c-1.35,2.03-2.69,4.07-4.03,6.1c-0.11,0.17-0.22,0.36-0.35,0.52c-0.44,0.56-0.78,0.57-1.2,0.02
			c-0.14-0.19-0.27-0.39-0.4-0.59c-1.34-2.04-2.68-4.07-4.02-6.11c-0.08-0.12-0.13-0.27-0.3-0.34c-0.26,0.12-0.12,0.36-0.12,0.53
			c-0.01,1.87-0.01,3.75-0.01,5.62c0,0.24,0.01,0.48-0.02,0.71c-0.05,0.38-0.3,0.55-0.68,0.57c-0.39,0.02-0.63-0.16-0.72-0.52
			c-0.05-0.2-0.03-0.41-0.03-0.62c0-2.82,0-5.65,0-8.47c0-0.15,0-0.3,0.01-0.45c0.01-0.33,0.15-0.57,0.48-0.67
			c0.35-0.1,0.66-0.03,0.88,0.27c0.28,0.39,0.53,0.79,0.79,1.19C523.89,400.87,525.44,403.23,527.07,405.71z"/>
		<path class="st3" d="M542.72,398.49c0,0.96,0,1.87,0,2.85c0.69,0,1.34,0,1.99,0c1.84,0,3.69,0,5.53,0c0.21,0,0.42-0.01,0.62,0.01
			c0.39,0.02,0.6,0.23,0.62,0.62c0.03,0.41-0.17,0.69-0.58,0.77c-0.2,0.04-0.41,0.01-0.62,0.01c-2.5,0-5,0-7.55,0
			c0,1.19,0,2.36,0,3.55c0.25,0.14,0.53,0.08,0.78,0.08c2.41,0.01,4.82,0,7.23,0c0.21,0,0.42-0.01,0.62,0.01
			c0.37,0.05,0.6,0.25,0.6,0.64c0,0.4-0.16,0.69-0.6,0.74c-0.18,0.02-0.36,0.01-0.53,0.01c-2.83,0-5.65,0-8.48,0
			c-1.03,0-1.12-0.08-1.12-1.12c0-2.85,0-5.71,0-8.56c0-0.98,0.1-1.09,1.06-1.09c2.89-0.01,5.77,0,8.66,0
			c0.21,0,0.42,0.01,0.61,0.07c0.34,0.11,0.42,0.4,0.39,0.72c-0.03,0.29-0.17,0.52-0.47,0.57c-0.23,0.04-0.47,0.03-0.71,0.03
			c-2.41,0-4.82,0-7.23,0C543.29,398.41,543.02,398.35,542.72,398.49z"/>
		<path class="st0" d="M506.51,407.79c-0.9-0.05-1.85,0.07-2.79-0.17c-2.56-0.67-4.12-2.97-3.92-5.82c0.17-2.39,2.14-4.45,4.59-4.71
			c1.45-0.15,2.92-0.15,4.37,0c2.44,0.25,4.43,2.35,4.6,4.81c0.19,2.68-1.42,5.04-3.87,5.7
			C508.52,407.86,507.53,407.76,506.51,407.79z M506.58,406.37c0.54,0,1.07,0.02,1.61,0c2.02-0.07,3.59-1.64,3.74-3.71
			c0.14-2.05-1.25-3.86-3.24-4.15c-1.39-0.2-2.79-0.2-4.18-0.01c-2.1,0.29-3.42,2.05-3.28,4.27c0.12,1.96,1.74,3.52,3.75,3.59
			C505.51,406.39,506.04,406.37,506.58,406.37z"/>
		<path class="st4" d="M491.48,402.88c-3.18,0-6.23,0-9.26,0c-0.25,0.22-0.15,0.47-0.16,0.7c-0.01,1.04,0,2.08-0.01,3.12
			c-0.01,0.83-0.18,1.08-0.72,1.09c-0.55,0.01-0.73-0.24-0.73-1.06c0-2.56,0-5.11,0-7.67c0-0.33,0-0.65,0-0.98
			c0.01-0.78,0.22-1.08,0.75-1.06c0.49,0.01,0.7,0.3,0.7,1.02c0.01,0.8,0,1.6,0,2.41c0,0.29,0,0.58,0,0.93c3.15,0,6.23,0,9.32,0
			c0.19-0.19,0.1-0.44,0.1-0.67c0.01-1.01,0.01-2.02,0.01-3.03c0-0.45,0.29-0.64,0.69-0.66c0.4-0.02,0.68,0.19,0.73,0.62
			c0.02,0.21,0.02,0.42,0.02,0.62c0,2.79,0,5.59,0,8.38c0,0.24,0.01,0.48-0.05,0.71c-0.09,0.33-0.36,0.45-0.69,0.44
			c-0.34,0-0.59-0.14-0.65-0.48c-0.05-0.26-0.05-0.53-0.05-0.8C491.48,405.32,491.48,404.14,491.48,402.88z"/>
		<path class="st5" d="M121.73,374.42c0.24-0.22,0.52-0.16,0.8-0.14c0.06,0.25-0.1,0.28-0.27,0.31
			C122.15,374.34,121.89,374.52,121.73,374.42z"/>
	</g>
</g>
</svg>
